# xmcd
#
# Track frame offsets:
#	150
#	17587
#	33075
#	52226
#	71177
#	87270
#	106688
#	121758
#	138545
#	155982
#	171470
#	190621
#	209572
#	225665
#	245083
#	260153
#
# Disc length: 3692 seconds
#
# Revision: 4
# Processed by: cddbd v1.5.2PL0 Copyright (c) Steve Scherf et al.
# Submitted via: audiograbber 1.83.01
#
DISCID=eb0e6a10
DTITLE=Country Male Hits Now - KB-30622
DYEAR=1900
DGENRE=Karaoke
TTITLE0=Diamond Rio - Beautiful Mess
TTITLE1=Brad Paisley - I'm Gonna Miss Her
TTITLE2=Tim McGraw - Red Rag Top
TTITLE3=Alan Jackson - Work In Progress
TTITLE4=Kenny Chesney - The Good Stuff
TTITLE5=Montgomery Gentry - My Town
TTITLE6=Phil Vassar - American Child
TTITLE7=Toby Keith - Who's Your Daddy
TTITLE8=Diamond Rio [Wvocal] - Beautiful Mess
TTITLE9=Brad Paisley [Wvocal] - I'm Gonna Miss Her
TTITLE10=Tim McGraw [Wvocal] - Red Rag Top
TTITLE11=Alan Jackson [Wvocal] - Work In Progress
TTITLE12=Kenny Chesney [Wvocal] - The Good Stuff
TTITLE13=Montgomery Gentry [Wvocal] - My Town
TTITLE14=Phil Vassar [Wvocal] - American Child
TTITLE15=Toby Keith [Wvocal] - Who's Your Daddy
EXTD=Disc #30622
EXTT0=
EXTT1=
EXTT2=
EXTT3=
EXTT4=
EXTT5=
EXTT6=
EXTT7=
EXTT8=
EXTT9=
EXTT10=
EXTT11=
EXTT12=
EXTT13=
EXTT14=
EXTT15=
PLAYORDER=
